<svg width="677" height="464" viewBox="0 0 677 464" fill="none" xmlns="http://www.w3.org/2000/svg">
<path d="M1 193.47L337.186 390.546L676 198.037L340.232 0.73291L1 193.47Z" fill="#1C2127" stroke="white"/>
<path d="M337.113 390.584L1.0791 193.584V263.349L337.113 461.985V390.584Z" fill="#1C2127" stroke="white"/>
<path d="M337.22 390.587L675.881 198.116V265.026L336.877 462.977L337.22 390.587Z" fill="#1C2127" stroke="white"/>
<path d="M62.42 278.069C56.6835 274.757 53.2471 268.389 53.2471 260.805C53.2471 253.285 56.628 250.757 62.6417 254.229C67.63 257.109 70.9001 262.229 71.4267 267.429L68.8217 265.925C68.2951 262.389 66.1612 258.917 62.5863 256.853C58.5402 254.517 55.9075 255.877 55.9075 260.549V264.325C55.9075 268.581 58.5402 273.205 62.5032 275.493C65.7733 277.381 68.1566 276.613 68.8217 273.637L71.4267 275.141C70.7339 279.701 67.3252 280.901 62.42 278.069ZM73.4768 275.781C73.4768 270.309 76.3035 268.741 80.4327 271.125C84.5065 273.477 87.3609 278.261 87.3609 283.797C87.3609 289.013 84.839 291.013 80.4327 288.469C76.0818 285.957 73.4768 281.061 73.4768 275.781ZM75.9432 278.581C75.9432 281.845 77.994 284.757 80.4327 286.165C82.8991 287.589 84.9222 286.997 84.9222 283.765V281.173C84.9222 278.069 83.01 274.949 80.4327 273.461C77.8277 271.957 75.9432 272.917 75.9432 275.989V278.581ZM90.4604 293.938V277.234L92.5666 278.45L92.8714 281.73L93.0654 281.842C93.9522 280.21 95.7813 279.986 97.9429 281.234C101.102 283.058 102.959 286.754 102.959 290.882V301.154L100.548 299.762V289.778C100.548 286.642 99.3285 284.498 97.1392 283.234C94.5896 281.762 92.8714 283.106 92.8714 286.594V295.33L90.4604 293.938ZM107.037 303.509V286.805L109.143 288.021L109.448 291.301L109.642 291.413C110.529 289.781 112.358 289.557 114.52 290.805C117.679 292.629 119.536 296.325 119.536 300.453V310.725L117.125 309.333V299.349C117.125 296.213 115.905 294.069 113.716 292.805C111.166 291.333 109.448 292.677 109.448 296.165V304.901L107.037 303.509ZM122.422 303.975C122.422 298.567 125.055 296.887 129.212 299.287C133.12 301.543 135.641 305.815 135.641 310.519C135.641 311.063 135.614 311.719 135.558 312.199L124.889 306.039V306.999C124.889 309.943 126.635 312.903 129.295 314.439C131.374 315.639 132.87 315.223 133.341 313.671L135.725 315.047C135.143 317.943 132.565 318.567 129.24 316.647C125 314.199 122.422 309.351 122.422 303.975ZM124.889 303.991L133.258 308.823V308.183C133.258 305.591 131.623 302.919 129.212 301.527C126.662 300.055 124.889 300.855 124.889 303.543V303.991ZM151.192 323.305C150.721 326.745 148.254 327.625 144.762 325.609C140.439 323.113 137.89 318.249 137.89 313.001C137.89 307.433 140.744 305.945 144.846 308.313C148.199 310.249 150.637 313.929 151.109 317.689L148.725 316.313C148.226 313.689 146.675 311.705 144.735 310.585C142.13 309.081 140.356 310.201 140.356 313.273V315.801C140.356 318.809 142.102 321.769 144.735 323.289C146.896 324.537 148.448 323.993 148.808 321.929L151.192 323.305ZM163.564 312.977L165.948 314.353V318.001L163.564 316.625V312.977ZM165.948 320.817V337.521L163.564 336.145V321.745L157.135 318.033V330.129L160.128 331.857V334.161L156.969 332.337C155.334 331.393 154.807 330.161 154.779 328.609V316.673L152.119 315.137V312.833L154.779 314.369V308.833L157.135 310.193V315.729L165.948 320.817ZM167.794 321.883L170.427 323.403L172.976 333.771L174.39 339.547L174.556 339.643L175.886 335.451L178.436 328.027L181.069 329.547L175.914 343.275L173.06 341.627L167.794 321.883ZM182.912 327.507V323.859L185.295 325.235V328.883L182.912 327.507ZM182.912 347.315V330.611L185.295 331.987V348.691L182.912 347.315ZM192.522 350.559L195.57 352.319V354.623L192.245 352.703C190.693 351.807 190.138 350.559 190.138 349.151V337.087L187.506 335.567V333.263L190.138 334.783V329.247L192.522 330.623V336.159L195.542 337.903V340.207L192.522 338.463V350.559ZM196.117 338.235L198.75 339.755L200.856 346.443L203.211 354.203L203.378 354.299L207.895 345.035L210.527 346.555L204.514 357.835V362.667C204.514 363.659 204.348 365.035 202.408 363.915L198.722 361.787V359.515L202.13 361.483V356.427L196.117 338.235Z" fill="white"/>
<circle cx="9.81495" cy="9.81495" r="9.81495" transform="matrix(0.866025 0.5 0 1 21 231.733)" fill="#FBB360"/>
</svg>
