<svg width="677" height="465" viewBox="0 0 677 465" fill="none" xmlns="http://www.w3.org/2000/svg">
<path d="M1 193.982L337.186 391.058L676 198.549L340.232 1.24438L1 193.982Z" fill="#1C2127" stroke="white"/>
<path d="M337.113 391.096L1.0791 194.096V263.86L337.113 462.497V391.096Z" fill="#1C2127" stroke="white"/>
<path d="M337.22 391.098L675.881 198.627V265.537L336.877 463.489L337.22 391.098Z" fill="#1C2127" stroke="white"/>
<path d="M53.2471 261.316C53.2471 253.764 56.7389 251.364 62.6971 254.804C68.6554 258.244 72.1472 264.676 72.1472 272.228C72.1472 279.78 68.6831 282.196 62.6971 278.74C56.7112 275.284 53.2471 268.868 53.2471 261.316ZM55.9075 264.452C55.9075 269.412 58.6234 273.764 62.6971 276.116C67.0481 278.628 69.4868 276.932 69.4868 272.292V269.028C69.4868 264.132 66.7709 259.78 62.6971 257.428C58.3462 254.916 55.9075 256.58 55.9075 261.188V264.452ZM75.2638 285.676V268.972L77.37 270.188L77.6748 273.468L77.8688 273.58C78.7556 271.948 80.5847 271.724 82.7463 272.972C85.9055 274.796 87.7623 278.492 87.7623 282.62V292.892L85.3513 291.5V281.516C85.3513 278.38 84.1319 276.236 81.9426 274.972C79.393 273.5 77.6748 274.844 77.6748 278.332V287.068L75.2638 285.676ZM94.4811 294.467L97.5296 296.227V298.531L94.204 296.611C92.6521 295.715 92.0978 294.467 92.0978 293.059V280.995L89.4651 279.475V277.171L92.0978 278.691V273.155L94.4811 274.531V280.067L97.5018 281.811V284.115L94.4811 282.371V294.467ZM99.1609 291.121C99.1609 285.649 101.988 284.081 106.117 286.465C110.191 288.817 113.045 293.601 113.045 299.137C113.045 304.353 110.523 306.353 106.117 303.809C101.766 301.297 99.1609 296.401 99.1609 291.121ZM101.627 293.921C101.627 297.185 103.678 300.097 106.117 301.505C108.583 302.929 110.606 302.337 110.606 299.105V296.513C110.606 293.409 108.694 290.289 106.117 288.801C103.512 287.297 101.627 288.257 101.627 291.329V293.921ZM116.145 309.278V285.822L118.528 287.198V310.654L116.145 309.278ZM121.381 303.95C121.381 298.478 124.208 296.91 128.337 299.294C132.411 301.646 135.265 306.43 135.265 311.966C135.265 317.182 132.743 319.182 128.337 316.638C123.986 314.126 121.381 309.23 121.381 303.95ZM123.847 306.75C123.847 310.014 125.898 312.926 128.337 314.334C130.803 315.758 132.826 315.166 132.826 311.934V309.342C132.826 306.238 130.914 303.118 128.337 301.63C125.732 300.126 123.847 301.086 123.847 304.158V306.75ZM145.708 323.083C148.507 324.699 150.115 327.259 150.115 329.819C150.115 333.115 147.399 333.115 143.159 330.667C138.863 328.187 136.951 325.483 136.951 323.083C136.951 321.323 137.838 320.715 139.168 321.003V320.779C138.337 319.979 137.755 318.715 137.755 317.691C137.755 316.411 138.531 315.771 139.667 316.043V315.851C138.309 314.107 137.561 312.043 137.561 310.155C137.561 306.827 139.806 305.915 142.965 307.739C143.935 308.299 144.849 309.019 145.57 309.787V309.243C145.57 307.835 146.263 307.627 147.565 308.379L149.921 309.739V312.011L147.177 310.427V311.899C147.981 313.291 148.507 314.971 148.507 316.571C148.507 319.835 146.318 320.747 143.214 318.955C142.438 318.507 141.801 318.043 141.219 317.515C140.388 317.227 139.944 317.611 139.944 318.315C139.944 319.723 141.191 320.475 141.884 320.875L145.708 323.083ZM139.944 310.987V312.139C139.944 313.899 141.164 315.787 143.048 316.875C144.905 317.947 146.152 317.483 146.152 315.723V314.571C146.152 312.811 144.905 310.875 143.048 309.803C141.191 308.731 139.944 309.195 139.944 310.987ZM143.297 328.667C146.484 330.507 147.732 330.171 147.732 328.571C147.732 326.587 145.902 325.531 145.515 325.307L141.579 323.035C139.944 322.091 139.196 322.523 139.196 323.835C139.196 325.563 140.526 327.067 143.297 328.667ZM150.094 312.175L152.727 313.695L154.833 320.383L157.189 328.143L157.355 328.239L161.872 318.975L164.505 320.495L158.491 331.775V336.607C158.491 337.599 158.325 338.975 156.385 337.855L152.699 335.727V333.455L156.108 335.423V330.367L150.094 312.175Z" fill="white"/>
<circle cx="9.81495" cy="9.81495" r="9.81495" transform="matrix(0.866025 0.5 0 1 21 232.244)" fill="#8ABBFF"/>
</svg>
