<svg width="677" height="465" viewBox="0 0 677 465" fill="none" xmlns="http://www.w3.org/2000/svg">
<path d="M1 193.737L337.186 390.813L676 198.304L340.232 1L1 193.737Z" fill="#1C2127" stroke="white"/>
<path d="M337.113 390.852L1.0791 193.852V263.616L337.113 462.253V390.852Z" fill="#1C2127" stroke="white"/>
<path d="M337.22 390.854L675.881 198.383V265.293L336.877 463.244L337.22 390.854Z" fill="#1C2127" stroke="white"/>
<path d="M53.2471 261.072C53.2471 253.52 56.7389 251.12 62.6971 254.56C68.6554 258 72.1472 264.432 72.1472 271.984C72.1472 279.536 68.6831 281.952 62.6971 278.496C56.7112 275.04 53.2471 268.624 53.2471 261.072ZM55.9075 264.208C55.9075 269.168 58.6234 273.52 62.6971 275.872C67.0481 278.384 69.4868 276.688 69.4868 272.048V268.784C69.4868 263.888 66.7709 259.536 62.6971 257.184C58.3462 254.672 55.9075 256.336 55.9075 260.944V264.208ZM75.2638 285.431V268.727L77.37 269.943L77.6748 273.223L77.8688 273.335C78.7556 271.703 80.5847 271.479 82.7463 272.727C85.9055 274.551 87.7623 278.247 87.7623 282.375V292.647L85.3513 291.255V281.271C85.3513 278.135 84.1319 275.991 81.9426 274.727C79.393 273.255 77.6748 274.599 77.6748 278.087V286.823L75.2638 285.431ZM94.4811 294.223L97.5296 295.983V298.287L94.204 296.367C92.6521 295.471 92.0978 294.223 92.0978 292.815V280.751L89.4651 279.231V276.927L92.0978 278.447V272.91L94.4811 274.286V279.823L97.5018 281.567V283.871L94.4811 282.127V294.223ZM99.1609 290.876C99.1609 285.404 101.988 283.836 106.117 286.22C110.191 288.572 113.045 293.356 113.045 298.892C113.045 304.108 110.523 306.108 106.117 303.564C101.766 301.052 99.1609 296.156 99.1609 290.876ZM101.627 293.676C101.627 296.94 103.678 299.852 106.117 301.26C108.583 302.684 110.606 302.092 110.606 298.86V296.268C110.606 293.164 108.694 290.044 106.117 288.556C103.512 287.052 101.627 288.012 101.627 291.084V293.676ZM116.145 309.034V285.578L118.528 286.954V310.41L116.145 309.034ZM121.381 303.705C121.381 298.233 124.208 296.665 128.337 299.049C132.411 301.401 135.265 306.185 135.265 311.721C135.265 316.937 132.743 318.937 128.337 316.393C123.986 313.881 121.381 308.985 121.381 303.705ZM123.847 306.505C123.847 309.769 125.898 312.681 128.337 314.089C130.803 315.513 132.826 314.921 132.826 311.689V309.097C132.826 305.993 130.914 302.873 128.337 301.385C125.732 299.881 123.847 300.841 123.847 303.913V306.505ZM145.708 322.839C148.507 324.455 150.115 327.015 150.115 329.575C150.115 332.871 147.399 332.871 143.159 330.423C138.863 327.943 136.951 325.239 136.951 322.839C136.951 321.079 137.838 320.471 139.168 320.759V320.535C138.337 319.735 137.755 318.471 137.755 317.447C137.755 316.167 138.531 315.527 139.667 315.799V315.607C138.309 313.863 137.561 311.799 137.561 309.911C137.561 306.583 139.806 305.671 142.965 307.495C143.935 308.055 144.849 308.775 145.57 309.543V308.999C145.57 307.591 146.263 307.383 147.565 308.135L149.921 309.495V311.767L147.177 310.183V311.655C147.981 313.047 148.507 314.727 148.507 316.327C148.507 319.591 146.318 320.503 143.214 318.711C142.438 318.263 141.801 317.799 141.219 317.271C140.388 316.983 139.944 317.367 139.944 318.071C139.944 319.479 141.191 320.231 141.884 320.631L145.708 322.839ZM139.944 310.743V311.895C139.944 313.655 141.164 315.543 143.048 316.631C144.905 317.703 146.152 317.239 146.152 315.479V314.327C146.152 312.567 144.905 310.631 143.048 309.559C141.191 308.487 139.944 308.951 139.944 310.743ZM143.297 328.423C146.484 330.263 147.732 329.927 147.732 328.327C147.732 326.343 145.902 325.287 145.515 325.063L141.579 322.791C139.944 321.847 139.196 322.279 139.196 323.591C139.196 325.319 140.526 326.823 143.297 328.423ZM150.094 311.931L152.727 313.451L154.833 320.139L157.189 327.899L157.355 327.995L161.872 318.731L164.505 320.251L158.491 331.531V336.363C158.491 337.355 158.325 338.731 156.385 337.611L152.699 335.483V333.211L156.108 335.179V330.123L150.094 311.931ZM173.76 335.098C173.816 338.586 176.005 341.546 179.136 343.354C182.129 345.082 184.069 344.602 184.069 341.882C184.069 338.906 181.797 337.05 180.855 336.25L177.307 333.274C175.534 331.77 171.709 328.602 171.709 323.93C171.709 319.898 174.564 319.114 178.776 321.546C183.099 324.042 186.009 328.218 186.092 332.522L183.515 331.034C183.376 328.074 181.547 325.514 178.776 323.914C175.949 322.282 174.342 322.89 174.342 325.162C174.342 327.818 176.642 329.786 177.945 330.858L181.741 334.01C185.316 336.97 186.73 340.09 186.73 343.13C186.73 347.61 183.626 348.314 179.053 345.674C173.705 342.586 171.155 337.69 171.155 333.594L173.76 335.098ZM190.635 352.041V328.713L198.81 333.433C205.046 337.033 207.29 342.649 207.29 350.009C207.29 357.433 204.99 360.329 198.81 356.761L190.635 352.041ZM193.157 350.841L198.783 354.089C202.718 356.361 204.63 355.417 204.63 350.393V346.553C204.63 341.369 202.579 338.265 198.783 336.073L193.157 332.825V350.841ZM223.504 371.018L217.186 356.522L213.306 359.658V365.13L210.784 363.674V340.346L213.306 341.802V355.69L223.227 347.53L226.193 349.242L218.849 355.178L226.47 372.73L223.504 371.018Z" fill="white"/>
<circle cx="9.81495" cy="9.81495" r="9.81495" transform="matrix(0.866025 0.5 0 1 21 232)" fill="#D69FD6"/>
</svg>
