<svg width="677" height="465" viewBox="0 0 677 465" fill="none" xmlns="http://www.w3.org/2000/svg">
<path d="M1 194.226L337.186 391.302L676 198.793L340.232 1.48865L1 194.226Z" fill="#1C2127" stroke="white"/>
<path d="M337.113 391.34L1.0791 194.34V264.105L337.113 462.741V391.34Z" fill="#1C2127" stroke="white"/>
<path d="M337.22 391.342L675.881 198.872V265.782L336.877 463.733L337.22 391.342Z" fill="#1C2127" stroke="white"/>
<path d="M54.799 274.105V250.777L63.584 255.849C67.9072 258.345 69.9025 262.409 69.9025 266.857C69.9025 271.561 67.7132 273.049 63.584 270.665L57.3209 267.049V275.561L54.799 274.105ZM57.3209 264.489L63.4731 268.041C65.9118 269.449 67.242 268.713 67.242 266.473V264.137C67.242 261.897 65.8564 259.849 63.7779 258.649L57.3209 254.921V264.489ZM72.5575 264.55V260.902L74.9408 262.278V265.926L72.5575 264.55ZM72.5575 284.358V267.654L74.9408 269.03V285.734L72.5575 284.358ZM79.2021 293.538V271.49L81.3637 272.738L81.6131 275.826L81.7794 275.922C82.7216 274.386 84.5784 274.274 86.9617 275.65C90.7306 277.826 92.9753 282.226 92.9753 287.666C92.9753 293.17 90.7029 294.93 86.9617 292.77C84.4952 291.346 82.6939 289.058 81.7794 286.514L81.6131 286.418V294.93L79.2021 293.538ZM86.2966 290.05C88.8738 291.538 90.5089 290.722 90.5089 287.938V284.578C90.5089 281.858 88.9293 279.09 86.2966 277.57C83.4976 275.954 81.6131 276.946 81.6131 280.082V282.162C81.6131 285.266 83.4976 288.434 86.2966 290.05ZM95.1285 288.973C95.1285 283.565 97.7612 281.885 101.918 284.285C105.826 286.541 108.348 290.813 108.348 295.517C108.348 296.061 108.32 296.717 108.264 297.197L97.5949 291.037V291.997C97.5949 294.941 99.3408 297.901 102.001 299.437C104.08 300.637 105.576 300.221 106.047 298.669L108.431 300.045C107.849 302.941 105.271 303.565 101.946 301.645C97.7058 299.197 95.1285 294.349 95.1285 288.973ZM97.5949 288.989L105.964 293.821V293.181C105.964 290.589 104.329 287.917 101.918 286.525C99.3686 285.053 97.5949 285.853 97.5949 288.541V288.989ZM111.517 306.851V283.395L113.9 284.771V308.227L111.517 306.851ZM118.161 290.879V287.231L120.545 288.607V292.255L118.161 290.879ZM118.161 310.687V293.983L120.545 295.359V312.063L118.161 310.687ZM124.806 314.523V297.819L126.912 299.035L127.217 302.315L127.411 302.427C128.298 300.795 130.127 300.571 132.288 301.819C135.448 303.643 137.304 307.339 137.304 311.467V321.739L134.893 320.347V310.363C134.893 307.227 133.674 305.083 131.485 303.819C128.935 302.347 127.217 303.691 127.217 307.179V315.915L124.806 314.523ZM141.383 304.286V300.638L143.766 302.014V305.662L141.383 304.286ZM141.383 324.094V307.39L143.766 308.766V325.47L141.383 324.094ZM148.027 327.93V311.226L150.133 312.442L150.438 315.722L150.632 315.834C151.519 314.202 153.348 313.978 155.51 315.226C158.669 317.05 160.526 320.746 160.526 324.874V335.146L158.115 333.754V323.77C158.115 320.634 156.895 318.49 154.706 317.226C152.156 315.754 150.438 317.098 150.438 320.586V329.322L148.027 327.93ZM171.948 338.477C174.747 340.093 176.354 342.653 176.354 345.213C176.354 348.509 173.638 348.509 169.398 346.061C165.103 343.581 163.191 340.877 163.191 338.477C163.191 336.717 164.078 336.109 165.408 336.397V336.173C164.576 335.373 163.994 334.109 163.994 333.085C163.994 331.805 164.77 331.165 165.907 331.437V331.245C164.549 329.501 163.8 327.437 163.8 325.549C163.8 322.221 166.045 321.309 169.204 323.133C170.174 323.693 171.089 324.413 171.809 325.181V324.637C171.809 323.229 172.502 323.021 173.805 323.773L176.16 325.133V327.405L173.417 325.821V327.293C174.22 328.685 174.747 330.365 174.747 331.965C174.747 335.229 172.558 336.141 169.454 334.349C168.678 333.901 168.04 333.437 167.459 332.909C166.627 332.621 166.184 333.005 166.184 333.709C166.184 335.117 167.431 335.869 168.124 336.269L171.948 338.477ZM166.184 326.381V327.533C166.184 329.293 167.403 331.181 169.288 332.269C171.144 333.341 172.391 332.877 172.391 331.117V329.965C172.391 328.205 171.144 326.269 169.288 325.197C167.431 324.125 166.184 324.589 166.184 326.381ZM169.537 344.061C172.724 345.901 173.971 345.565 173.971 343.965C173.971 341.981 172.142 340.925 171.754 340.701L167.819 338.429C166.184 337.485 165.435 337.917 165.435 339.229C165.435 340.957 166.766 342.461 169.537 344.061Z" fill="white"/>
<circle cx="9.81495" cy="9.81495" r="9.81495" transform="matrix(0.866025 0.5 0 1 21 232.489)" fill="#72CA9B"/>
</svg>
